<svg width="41" height="36" viewBox="0 0 41 36" fill="none" xmlns="http://www.w3.org/2000/svg">
<path d="M21.7535 9.17783L21.8459 9.2054L21.8522 9.19815C22.1254 9.23001 22.3889 9.06163 22.4693 8.7902C23.1428 6.52751 25.2648 4.94638 27.6286 4.94638C27.9464 4.94638 28.2041 4.68864 28.2041 4.37085C28.2041 4.05304 27.9464 3.79531 27.6286 3.79531C24.6608 3.79531 22.167 5.77132 21.3663 8.46213C21.2754 8.76687 21.4491 9.08704 21.7535 9.17783Z" fill="#CBA557" stroke="#F9FFF9" stroke-width="0.3"/>
<path d="M33.5864 25.2226H31.0333C30.7983 25.2226 30.6078 25.032 30.6078 24.7971C30.6078 24.5621 30.7983 24.3715 31.0333 24.3715H33.5864C37.1059 24.3715 39.9694 21.508 39.9694 17.9886C39.9694 14.4692 37.1059 11.6056 33.5864 11.6056H33.5251C33.4016 11.6056 33.2843 11.5521 33.2035 11.4588C33.1226 11.3655 33.0861 11.2418 33.1038 11.1196C33.1418 10.8546 33.1609 10.5883 33.1609 10.329C33.1609 7.27891 30.6791 4.79711 27.629 4.79711C26.4424 4.79711 25.3108 5.16793 24.3563 5.86975C24.1466 6.02385 23.8487 5.95546 23.7274 5.72476C21.0244 0.577686 13.9644 -0.113513 10.3042 4.36399C8.76228 6.2503 8.15644 8.70408 8.64191 11.0956C8.6954 11.3597 8.49327 11.606 8.22488 11.606H8.05437C4.53495 11.606 1.67141 14.4695 1.67141 17.9889C1.67141 21.5083 4.53495 24.3719 8.05437 24.3719H10.6075C10.8425 24.3719 11.0331 24.5624 11.0331 24.7974C11.0331 25.0323 10.8425 25.2229 10.6075 25.2229H8.05437C4.0656 25.2229 0.820312 21.9776 0.820312 17.9889C0.820312 14.112 3.88593 10.9375 7.72032 10.7624C7.36014 8.28127 8.0489 5.77854 9.64522 3.8254C13.564 -0.968801 21.0742 -0.431435 24.2489 4.91445C25.2617 4.27949 26.4206 3.94639 27.6289 3.94639C31.3243 3.94639 34.2526 7.09169 33.9963 10.7664C37.7954 10.9795 40.8203 14.1372 40.8203 17.9886C40.8203 21.9776 37.575 25.2226 33.5863 25.2226L33.5864 25.2226Z" fill="#CBA557"/>
<path d="M9.975 24.5564C9.975 30.5053 14.8146 35.3447 20.7634 35.3447C26.7123 35.3447 31.5518 30.5052 31.5518 24.5564C31.5518 18.6075 26.7123 13.768 20.7634 13.768C14.8145 13.768 9.975 18.6075 9.975 24.5564ZM11.1263 24.5564C11.1263 19.2427 15.4496 14.9192 20.7634 14.9192C26.0771 14.9192 30.4005 19.2426 30.4005 24.5564C30.4005 29.87 26.0771 34.1935 20.7634 34.1935C15.4497 34.1935 11.1263 29.8701 11.1263 24.5564Z" fill="#CBA557" stroke="#F9FFF9" stroke-width="0.3"/>
<path d="M20.4945 28.8393C20.4945 29.0942 20.7012 29.3008 20.9561 29.3008C21.2109 29.3008 21.4176 29.0944 21.4176 28.8393V20.7393C21.4176 20.4844 21.2109 20.2777 20.9561 20.2777C20.7012 20.2777 20.4945 20.4844 20.4945 20.7393V28.8393Z" fill="#CBA557" stroke="#CBA557" stroke-width="0.3"/>
<path d="M23.6688 23.4519L23.775 23.5578C23.6848 23.6483 23.5661 23.6931 23.4485 23.6931L23.6688 23.4519ZM23.6688 23.4519C23.608 23.5129 23.5282 23.5431 23.4485 23.5431L23.6688 23.4519ZM20.9562 21.392L23.1221 23.558C23.2121 23.648 23.3307 23.6931 23.4485 23.6931L20.9562 21.392ZM20.9562 21.392L18.7904 23.5579C18.7904 23.5579 18.7903 23.5579 18.7903 23.5579C18.7903 23.5579 18.7903 23.558 18.7903 23.558C18.6101 23.7383 18.3178 23.7382 18.1376 23.558C17.9573 23.3777 17.9573 23.0855 18.1376 22.9052L20.6297 20.4131C20.6298 20.413 20.6298 20.413 20.6298 20.413L20.6298 20.413L20.7359 20.519L20.9562 21.392Z" fill="#CBA557" stroke="#CBA557" stroke-width="0.3"/>
</svg>
