<svg width="16" height="21" viewBox="0 0 16 21" fill="none" xmlns="http://www.w3.org/2000/svg">
<path d="M7.86779 5.17578C7.67025 5.17578 7.49912 5.34844 7.49912 5.54445V9.58156L6.41697 8.49789C6.26818 8.35063 6.0224 8.35063 5.89951 8.49789C5.75225 8.64465 5.75225 8.89246 5.89951 9.01535L7.62201 10.7379C7.69615 10.8125 7.79518 10.8364 7.89166 10.8364C7.99068 10.8364 8.0892 10.8125 8.16385 10.7379L9.88635 9.01535C10.0331 8.86656 10.0331 8.62078 9.88635 8.49789C9.73908 8.35063 9.49127 8.35063 9.36838 8.49789L8.28674 9.58156V5.57035C8.23799 5.34844 8.06482 5.17578 7.86779 5.17578Z" fill="white"/>
<mask id="mask0_594_2100" style="mask-type:luminance" maskUnits="userSpaceOnUse" x="0" y="0" width="16" height="21">
<path d="M1 0.835938H14.7074V20.3359H1V0.835938Z" fill="white" stroke="white" stroke-width="0.78"/>
</mask>
<g mask="url(#mask0_594_2100)">
<path d="M11.6311 4.46288C11.2868 4.46288 11.0166 4.19272 11.0166 3.8464V2.07565L13.4038 4.46288H11.6311ZM14.3148 5.96397C14.1173 5.96397 13.9457 6.13714 13.9457 6.33264V18.7847C13.9457 19.2037 13.6014 19.5485 13.1824 19.5485H2.50109C2.08367 19.5485 1.73938 19.2037 1.73938 18.7847V2.34581C1.73938 1.92839 2.08367 1.58409 2.50109 1.58409H10.2793V3.8728C10.2793 4.61015 10.8937 5.22612 11.6311 5.22612H14.2905C14.4377 5.22612 14.5845 5.12761 14.6348 5.00472C14.6835 4.88182 14.6591 4.70866 14.5606 4.58577L10.9181 0.943231C10.8196 0.844716 10.6967 0.820341 10.5977 0.844716H2.52547C1.6891 0.844716 1 1.53382 1 2.37171V18.8091C1 19.647 1.6891 20.3361 2.52547 20.3361H13.1824C14.0188 20.3361 14.7074 19.647 14.7074 18.8091V6.33264C14.6835 6.13714 14.5363 5.96397 14.3148 5.96397Z" fill="white" stroke="white" stroke-width="0.78"/>
</g>
<path d="M5.94988 15.637C5.94988 15.8345 5.80262 16.03 5.50656 16.03H5.16379V15.2439H5.50656C5.77875 15.2439 5.94988 15.3912 5.94988 15.637ZM4.84387 14.6523C4.6707 14.6523 4.52344 14.7768 4.52344 14.9723V17.2366C4.52344 17.4585 4.6707 17.5814 4.84387 17.5814C5.03938 17.5814 5.16379 17.4585 5.16379 17.2366V16.6206H5.65586C6.29418 16.6206 6.63898 16.2032 6.63898 15.637C6.63898 14.9723 6.14742 14.6523 5.63148 14.6523H4.84387Z" fill="white"/>
<path d="M8.75324 16.1037C8.75324 16.6196 8.50746 16.9654 7.99 16.9654H7.6452V15.2658H8.0159C8.50746 15.2658 8.75324 15.6121 8.75324 16.1037ZM7.3009 14.6513C7.12926 14.6513 6.98047 14.7757 6.98047 14.9713V17.2117C6.98047 17.4331 7.12926 17.5301 7.3009 17.5301H8.08852C8.80352 17.5301 9.44234 17.0142 9.44234 16.0534C9.44234 15.3161 8.95078 14.627 8.08852 14.627H7.3009V14.6513Z" fill="white"/>
<path d="M11.1639 15.2664C11.3614 15.2664 11.4843 15.1435 11.4843 14.9718C11.4843 14.8007 11.3614 14.6758 11.1639 14.6758H10.1548C9.9832 14.6758 9.83594 14.8007 9.83594 14.9977V17.2605C9.83594 17.482 9.9832 17.6048 10.1548 17.6048C10.3519 17.6048 10.4748 17.482 10.4748 17.2605V16.4242H11.0654C11.2624 16.4242 11.3853 16.3013 11.3853 16.1302C11.3853 15.9326 11.2624 15.8341 11.0654 15.8341H10.4748V15.3166H11.1639V15.2664Z" fill="white"/>
<path d="M10.5004 12.3374C10.5004 12.1399 10.3287 11.9688 10.1317 11.9688H5.60305C5.40703 11.9688 5.23438 12.1399 5.23438 12.3374C5.23438 12.535 5.40703 12.7061 5.60305 12.7061H10.1317C10.3287 12.7061 10.5004 12.5588 10.5004 12.3374Z" fill="white"/>
</svg>
